<svg width="27" height="26" viewBox="0 0 27 26" fill="none" xmlns="http://www.w3.org/2000/svg">
<path d="M18.5 8.49999C20.4891 8.49999 22.3968 9.29016 23.8033 10.6967C25.2098 12.1032 26 14.0109 26 16V24.75H21V16C21 15.3369 20.7366 14.701 20.2678 14.2322C19.7989 13.7634 19.1631 13.5 18.5 13.5C17.837 13.5 17.2011 13.7634 16.7323 14.2322C16.2634 14.701 16 15.3369 16 16V24.75H11V16C11 14.0109 11.7902 12.1032 13.1967 10.6967C14.6032 9.29016 16.5109 8.49999 18.5 8.49999Z" stroke="white" stroke-width="2" stroke-linecap="round" stroke-linejoin="round"/>
<path d="M5.99999 9.74999H1V24.75H5.99999V9.74999Z" stroke="white" stroke-width="2" stroke-linecap="round" stroke-linejoin="round"/>
<path d="M3.49999 5.99999C4.8807 5.99999 5.99999 4.8807 5.99999 3.49999C5.99999 2.11929 4.8807 1 3.49999 1C2.11929 1 1 2.11929 1 3.49999C1 4.8807 2.11929 5.99999 3.49999 5.99999Z" stroke="white" stroke-width="2" stroke-linecap="round" stroke-linejoin="round"/>
</svg>
