<svg width="27" height="33" viewBox="0 0 27 33" fill="none" xmlns="http://www.w3.org/2000/svg">
<path d="M16.4167 1H4.08333C3.26558 1 2.48132 1.32485 1.90309 1.90309C1.32485 2.48132 1 3.26558 1 4.08333V28.75C1 29.5678 1.32485 30.352 1.90309 30.9302C2.48132 31.5085 3.26558 31.8333 4.08333 31.8333H22.5833C23.4011 31.8333 24.1853 31.5085 24.7636 30.9302C25.3418 30.352 25.6667 29.5678 25.6667 28.75V10.25M16.4167 1L25.6667 10.25M16.4167 1L16.417 10.25H25.6667M19.5003 17.9583H7.16699M19.5003 24.125H7.16699M10.2503 11.7917H7.16699" stroke="white" stroke-width="2" stroke-linecap="round" stroke-linejoin="round"/>
</svg>
