<svg width="22" height="22" viewBox="0 0 22 22" fill="none" xmlns="http://www.w3.org/2000/svg">
<path d="M14.6417 11.909V19.1818M7.369 11.909V19.1818M11.0053 13.7272V21M18.2781 15.1636C19.2337 14.745 20.0163 14.0104 20.4945 13.0831C20.9727 12.1558 21.1173 11.0922 20.9041 10.0709C20.6909 9.04963 20.1328 8.13276 19.3236 7.47422C18.5143 6.81569 17.5032 6.45559 16.4599 6.45436H15.3144C15.0263 5.33845 14.477 4.30701 13.712 3.44505C12.947 2.58308 11.988 1.91528 10.9142 1.49667C9.84044 1.07807 8.68254 0.920663 7.53597 1.03742C6.3894 1.15417 5.287 1.54174 4.31962 2.16819C3.35224 2.79464 2.5476 3.64203 1.972 4.64051C1.3964 5.63899 1.06633 6.75998 1.009 7.91106C0.951676 9.06215 1.16873 10.2104 1.64227 11.2611C2.11581 12.3118 2.83228 13.235 3.73263 13.9545" stroke="white" stroke-width="2" stroke-linecap="round" stroke-linejoin="round"/>
</svg>
