<svg width="32" height="27" viewBox="0 0 32 27" fill="none" xmlns="http://www.w3.org/2000/svg">
<path d="M31 1.01401C29.6942 1.95512 28.2483 2.67491 26.7182 3.14568C25.8969 2.18087 24.8055 1.49704 23.5914 1.18667C22.3774 0.876302 21.0993 0.954373 19.9301 1.41032C18.7609 1.86628 17.757 2.67811 17.0541 3.73602C16.3512 4.79394 15.9832 6.04689 16 7.32542V8.71867C13.6036 8.78216 11.229 8.23913 9.08774 7.13796C6.94647 6.03678 5.10498 4.41163 3.72727 2.40726C3.72727 2.40726 -1.72727 14.9465 10.5455 20.5195C7.73708 22.4672 4.39158 23.4438 1 23.306C13.2727 30.2722 28.2727 23.306 28.2727 7.28363C28.2715 6.89554 28.235 6.50842 28.1636 6.12723C29.5554 4.72492 30.5375 2.9544 31 1.01401V1.01401Z" stroke="white" stroke-width="2" stroke-linecap="round" stroke-linejoin="round"/>
</svg>
