<svg width="24" height="20" viewBox="0 0 24 20" fill="none" xmlns="http://www.w3.org/2000/svg">
<path d="M10.2683 1.09824C10.615 0.989899 10.9826 0.970827 11.3382 1.04272C11.6939 1.11461 12.0266 1.27524 12.307 1.51033C12.5873 1.74542 12.8064 2.04768 12.945 2.39025C13.0835 2.73282 13.1371 3.10508 13.101 3.47393C13.0649 3.84279 12.9403 4.19682 12.7381 4.50454C12.536 4.81227 12.2626 5.06416 11.9423 5.23783C11.622 5.41149 11.2648 5.50155 10.9022 5.49999H1M13.5691 18.9018C13.9158 19.0101 14.2833 19.0292 14.639 18.9573C14.9946 18.8854 15.3274 18.7248 15.6077 18.4897C15.888 18.2546 16.1072 17.9523 16.2457 17.6097C16.3842 17.2672 16.4378 16.8949 16.4018 16.5261C16.3657 16.1572 16.241 15.8032 16.0389 15.4955C15.8367 15.1877 15.5634 14.9358 15.2431 14.7622C14.9228 14.5885 14.5655 14.4985 14.203 14.5H1M18.3069 5.19624C18.6269 4.86986 19.0206 4.62914 19.4533 4.49538C19.8859 4.36161 20.3441 4.33892 20.7874 4.42931C21.2306 4.5197 21.6453 4.72038 21.9946 5.01362C22.344 5.30685 22.6173 5.68359 22.7903 6.11052C22.9634 6.53745 23.0309 7.00141 22.9869 7.46137C22.9429 7.92133 22.7887 8.36311 22.538 8.74764C22.2873 9.13218 21.9477 9.44761 21.5494 9.66604C21.1511 9.88447 20.7063 9.99917 20.2543 10H1" stroke="white" stroke-width="2" stroke-linecap="round" stroke-linejoin="round"/>
</svg>
